<svg
  className="textfield--icon"
  viewbox="0 0 16 16"
  height="16px"
  width="16px"
>
  <path
    d="M2,0c-1.10457,0 -2,0.895431 -2,2v12c0,1.1046 0.895431,2 2,2h12c1.1046,0 2,-0.8954 2,-2v-12c0,-1.10457 -0.8954,-2 -2,-2h-12Zm2.70711,3.29289c-0.39053,-0.39052 -1.02369,-0.39052 -1.41422,0c-0.39052,0.39053 -0.39052,1.02369 0,1.41422l3.2929,3.29289l-3.2929,3.2929c-0.39052,0.3905 -0.39052,1.0237 0,1.4142c0.39053,0.3905 1.02369,0.3905 1.41422,0l3.29289,-3.29289l3.2929,3.29289c0.3905,0.3905 1.0237,0.3905 1.4142,0c0.3905,-0.3905 0.3905,-1.0237 0,-1.4142l-3.29289,-3.2929l3.29289,-3.29289c0.3905,-0.39053 0.3905,-1.02369 0,-1.41422c-0.3905,-0.39052 -1.0237,-0.39052 -1.4142,0l-3.2929,3.2929l-3.29289,-3.2929Z"
    fillRule="evenodd"
  />
</svg>