<svg
  className="textfield--icon"
  viewbox="0 0 16 16"
  height="16px"
  width="16px"
>
  <path
    d="M2,0c-1.10457,0 -2,0.895431 -2,2v12c0,1.1046 0.895431,2 2,2h12c1.1046,0 2,-0.8954 2,-2v-12c0,-1.10457 -0.8954,-2 -2,-2h-12Zm11.7526,4.6585c0.3637,-0.41563 0.3215,-1.04739 -0.0941,-1.41108c-0.4156,-0.36368 -1.0474,-0.32156 -1.4111,0.09408l-6.2474,7.1399l-2.24742,-2.56847c-0.36369,-0.41564 -0.99545,-0.45775 -1.41109,-0.09407c-0.41563,0.36368 -0.45775,0.99544 -0.09407,1.41108l3,3.42856c0.18989,0.217 0.46422,0.3415 0.75258,0.3415c0.28836,0 0.56269,-0.1245 0.75258,-0.3415l7.00002,-8Z"
    fillRule="evenodd"
  />
</svg>